<svg xmlns="http://www.w3.org/2000/svg" viewBox="69.664 41.008 321.146 162.549"
  style="
    height: 50px;
">
  <g transform="matrix(1, 0, 0, 1, 58.155326, 37.408408)">
    <path class="st0"
      d="M137.7,55.32c-0.71-4.88-3.35-6.6-9.35-6.6c-4.98,0-7.82,1.22-7.82,4.17s2.74,4.16,8.13,5.69 c5.69,1.62,11.07,2.74,14.93,4.27c5.28,2.13,8.23,5.59,8.23,12.09c0,10.36-7.62,16.56-21.84,16.56c-15.34,0-23.87-7.21-24.08-17.37 h13.61c0,4.67,3.96,7.42,10.36,7.42c4.67,0,8.84-1.42,8.84-5.18c0-3.56-3.76-4.67-8.02-5.69c-8.43-2.03-13.1-3.45-16.66-5.69 c-4.67-2.95-6.3-6.81-6.3-11.28c0-8.43,5.79-14.83,21.03-14.83c14.42,0,20.93,5.69,21.64,16.46H137.7z"
      style="
    fill: #fff;
"></path>
    <path class="st0"
      d="M188.48,60.3c-0.2-7.42-5.08-10.97-10.26-10.97c-5.28,0-9.65,4.06-10.16,10.97H188.48z M167.66,68.63 c0.41,7.52,4.67,12.39,11.17,12.39c4.27,0,8.02-2.13,8.94-5.59h13.61c-3.05,10.26-11.28,16.05-21.94,16.05 c-16.66,0-24.99-9.14-24.99-27.22c0-15.44,8.84-25.4,24.18-25.4s23.46,9.96,23.46,29.76H167.66z"
      style="
    fill: #fff;
"></path>
    <rect x="206.67" y="21.9" class="st0" width="13.21" height="68.26" style="
    fill: #fff;
"></rect>
    <path class="st0"
      d="M257.25,83.56c-1.83,4.47-7.31,7.11-13.51,7.11c-10.46,0-18.29-7.11-18.29-18.08v-32.4h13.21v30.47 c0,6.2,2.84,9.35,8.43,9.35c5.99,0,10.16-3.96,10.16-9.35V40.18h13.2v51.3c0,14.12-10.16,22.35-22.96,22.35 c-14.63,0-22.04-8.03-22.04-20.93h12.29c0,5.89,3.45,9.55,10.36,9.55c4.77,0,9.14-4.17,9.14-10.77V83.56z"
      style="
    fill: #fff;
"></path>
    <path class="st0"
      d="M306.83,65.68c-1.32,1.32-3.66,2.03-8.53,2.95c-7.52,1.42-9.95,3.56-9.95,7.82c0,3.76,2.23,5.59,6.4,5.59 c6.81,0,11.89-4.98,11.99-10.87L306.83,65.68z M307.74,90.16c-0.41-1.22-0.71-2.95-0.81-4.47c-3.15,3.45-8.43,5.79-15.14,5.79 c-11.38,0-16.66-5.59-16.66-13.71c0-14.42,9.65-16.05,22.96-17.88c6.6-0.91,8.43-2.24,8.43-5.69c0-3.25-3.25-5.18-8.43-5.18 c-5.99,0-8.43,2.95-9.04,7.41h-12.29c0.2-10.36,5.89-17.57,21.94-17.57c15.85,0,21.33,7.11,21.33,19.71v31.59H307.74z"
      style="
    fill: #fff;
"></path>
    <path class="st0"
      d="M60.15,18.49c-16.44,0-29.82,13.38-29.82,29.82c0,16.44,13.38,29.82,29.82,29.82 c16.44,0,29.82-13.38,29.82-29.82C89.97,31.87,76.59,18.49,60.15,18.49 M60.15,91.48c-23.81,0-43.17-19.37-43.17-43.17 S36.34,5.14,60.15,5.14s43.17,19.37,43.17,43.17S83.95,91.48,60.15,91.48"
      style="
    fill: #fff;
"></path>
    <path class="st1"
      d="M173.07,140.22c-85.02,0-150.64-24.9-159.32-60.19c-0.18,1.39-0.27,2.79-0.27,4.2 c0,39.76,71.45,80.34,159.59,80.34s159.59-40.58,159.59-80.34c0-1.41-0.09-2.81-0.27-4.2 C324.17,116.98,258.09,140.22,173.07,140.22"
      style="fill: rgb(222, 218, 7);"></path>
    <path class="st0"
      d="M 61.49 112.079 C 62.62 113.295 64.4 114.356 66.694 114.356 C 69.056 114.356 69.998 113.192 69.998 112.113 C 69.998 110.641 68.251 110.196 66.249 109.666 C 63.561 108.998 60.395 108.21 60.395 104.736 C 60.395 102.03 62.79 99.926 66.385 99.926 C 68.953 99.926 71.025 100.729 72.548 102.218 L 70.888 104.359 C 69.604 103.075 67.858 102.476 66.129 102.476 C 64.434 102.476 63.339 103.281 63.339 104.53 C 63.339 105.813 65.017 106.225 66.968 106.721 C 69.689 107.406 72.907 108.244 72.907 111.823 C 72.907 114.561 70.99 116.907 66.54 116.907 C 63.51 116.907 61.319 115.845 59.864 114.288 L 61.49 112.079 Z"
      style="
    fill: #fff;
"></path>
    <polygon class="st0"
      points="80.778 116.616 80.778 100.164 92.041 100.164 92.041 102.716 83.654 102.716 83.654 106.977 91.87 106.977 91.87 109.511 83.654 109.511 83.654 114.082 92.041 114.082 92.041 116.616"
      style="
    fill: #fff;
"></polygon>
    <path class="st0"
      d="M 107.185 102.716 L 103.23 102.716 L 103.23 107.954 L 107.185 107.954 C 108.811 107.954 109.991 106.91 109.991 105.335 C 109.991 103.743 108.811 102.716 107.185 102.716 M 109.753 116.616 L 106.106 110.471 L 103.247 110.471 L 103.247 116.616 L 100.354 116.616 L 100.354 100.164 L 107.578 100.164 C 110.83 100.164 112.953 102.287 112.953 105.317 C 112.953 108.262 111.036 109.836 109.051 110.145 L 113.073 116.598 L 109.753 116.598 L 109.753 116.616 Z"
      style="
    fill: #fff;
"></path>
    <polygon class="st0"
      points="124.666 116.616 118.212 100.164 121.482 100.164 126.464 113.483 131.444 100.164 134.731 100.164 128.277 116.616"
      style="
    fill: #fff;
"></polygon>
    <rect x="139.221" y="100.164" class="st0" width="2.893" height="16.45" style="
    fill: #fff;
"></rect>
    <path class="st0"
      d="M 148.374 108.416 C 148.374 103.366 152.139 99.908 156.882 99.908 C 160.34 99.908 162.377 101.637 163.608 103.606 L 161.144 104.873 C 160.356 103.52 158.782 102.476 156.882 102.476 C 153.749 102.476 151.336 104.958 151.336 108.416 C 151.336 111.874 153.749 114.356 156.882 114.356 C 158.782 114.356 160.356 113.346 161.144 111.96 L 163.608 113.227 C 162.343 115.194 160.322 116.923 156.882 116.923 C 152.157 116.923 148.374 113.465 148.374 108.416"
      style="
    fill: #fff;
"></path>
    <polygon class="st0"
      points="169.272 116.616 169.272 100.164 180.553 100.164 180.553 102.716 172.164 102.716 172.164 106.977 180.382 106.977 180.382 109.511 172.164 109.511 172.164 114.082 180.553 114.082 180.553 116.616"
      style="
    fill: #fff;
"></polygon>
  </g>
</svg>